# File created by Blade
# Date/Time:  Tue Sep 30 19:09:21 2014
#---------------------------------------------------------
:version 1.10
:name HOM
:units
  mass 1.0
  length 1.000000
  angle deg
:documentation
     Acclaim Skeleton File
:root
   axis xyz
   order TX TY TZ RX RY RZ
   position 0.000000 0.000000 0.000000
   orientation 0 0 0
:bonedata
   begin
      id 1
      name Spine_dum
      direction 0.000000 1.000000 0.000000
      length 7.508948
      axis 0.0 0.0 0.0 xyz
   end
   begin
      id 2
      name LeftUpLeg_dum
      direction 1.000000 0.000000 0.000000
      length 3.000560
      axis 0.0 0.0 0.0 xyz
   end
   begin
      id 3
      name RightUpLeg_dum
      direction -1.000000 0.000000 0.000000
      length 3.000560
      axis 0.0 0.0 0.0 xyz
   end
   begin
      id 4
      name Spine
      direction 0.000000 1.000000 0.000000
      length 0.000000
      axis 0.0 0.0 0.0 xyz
      dof rx ry rz
   end
   begin
      id 5
      name Spine_dum1
      direction 0.000000 1.000000 0.000000
      length 13.861154
      axis 0.0 0.0 0.0 xyz
   end
   begin
      id 6
      name Spine_dum2
      direction 0.000000 1.000000 0.000000
      length 8.204781
      axis 0.0 0.0 0.0 xyz
   end
   begin
      id 7
      name Spine_dum3
      direction 0.000000 1.000000 0.000000
      length 8.204781
      axis 0.0 0.0 0.0 xyz
   end
   begin
      id 8
      name Head
      direction 0.000000 1.000000 0.000000
      length 4.527550
      axis 0.0 0.0 0.0 xyz
      dof rx ry rz
   end
   begin
      id 9
      name LeftShoulder
      direction 1.000000 0.000000 0.000000
      length 6.635956
      axis 0.0 0.0 -90.0 xyz
      dof rx ry rz
   end
   begin
      id 10
      name LeftArm
      direction 1.000000 0.000000 0.000000
      length 10.274218
      axis 0.0 0.0 -90.0 xyz
      dof rx ry rz
   end
   begin
      id 11
      name LeftForeArm
      direction 1.000000 0.000000 0.000000
      length 8.522147
      axis 0.0 0.0 -90.0 xyz
      dof ry rz rx
   end
   begin
      id 12
      name LeftHand
      direction 0.000000 0.000000 0.000000
      length 0.000000
      axis 0.0 0.0 -90.0 xyz
      dof rx ry rz
   end
   begin
      id 13
      name LeftHand_dum1
      direction 0.000000 0.000000 0.000000
      length 0.000000
      axis 0.0 0.0 -90.0 xyz
   end
   begin
      id 14
      name LeftHand_dum2
      direction 1.000000 0.000000 0.000000
      length 3.937000
      axis 0.0 0.0 -90.0 xyz
   end
   begin
      id 15
      name LeftHandThumb1
      direction 0.000000 0.000000 1.000000
      length 3.937000
      axis 0.0 0.0 -90.0 xyz
      dof rx rz ry
   end
   begin
      id 16
      name RightShoulder
      direction -1.000000 0.000000 0.000000
      length 6.635956
      axis 0.0 0.0 90.0 xyz
      dof rx ry rz
   end
   begin
      id 17
      name RightArm
      direction -1.000000 0.000000 0.000000
      length 10.274218
      axis 0.0 0.0 90.0 xyz
      dof rx ry rz
   end
   begin
      id 18
      name RightForeArm
      direction -1.000000 0.000000 0.000000
      length 8.522147
      axis 0.0 0.0 90.0 xyz
      dof ry rz rx
   end
   begin
      id 19
      name RightHand
      direction 0.000000 0.000000 0.000000
      length 0.000000
      axis 0.0 0.0 90.0 xyz
      dof rx ry rz
   end
   begin
      id 20
      name RightHand_dum1
      direction 0.000000 0.000000 0.000000
      length 0.000000
      axis 0.0 0.0 90.0 xyz
   end
   begin
      id 21
      name RightHand_dum2
      direction -1.000000 0.000000 0.000000
      length 3.937000
      axis 0.0 0.0 90.0 xyz
   end
   begin
      id 22
      name RightHandThumb1
      direction 0.000000 0.000000 1.000000
      length 3.937000
      axis 0.0 0.0 90.0 xyz
      dof rx rz ry
   end
   begin
      id 23
      name LeftUpLeg
      direction 0.000000 -1.000000 0.000000
      length 16.490845
      axis 0.0 0.0 0.0 xyz
      dof rx ry rz
   end
   begin
      id 24
      name LeftLeg
      direction 0.000000 -1.000000 0.000000
      length 14.556576
      axis 0.0 0.0 0.0 xyz
      dof rx ry rz
   end
   begin
      id 25
      name LeftFoot
      direction 0.000000 -0.258819 0.965926
      length 4.831116
      axis 15.0 0.0 0.0 xyz
      dof rx ry rz
   end
   begin
      id 26
      name LeftToeBase
      direction 0.000000 0.000000 1.000000
      length 2.952750
      axis 0.0 0.0 0.0 xyz
      dof rx ry rz
   end
   begin
      id 27
      name RightUpLeg
      direction 0.000000 -1.000000 0.000000
      length 16.490845
      axis 0.0 0.0 0.0 xyz
      dof rx ry rz
   end
   begin
      id 28
      name RightLeg
      direction 0.000000 -1.000000 0.000000
      length 14.556576
      axis 0.0 0.0 0.0 xyz
      dof rx ry rz
   end
   begin
      id 29
      name RightFoot
      direction 0.000000 -0.258819 0.965926
      length 4.831116
      axis 15.0 0.0 0.0 xyz
      dof rx ry rz
   end
   begin
      id 30
      name RightToeBase
      direction 0.000000 0.000000 1.000000
      length 2.952750
      axis 0.0 0.0 0.0 xyz
      dof rx ry rz
   end
:hierarchy
   begin
      root Spine_dum LeftUpLeg_dum RightUpLeg_dum
      Spine_dum Spine
      LeftUpLeg_dum LeftUpLeg
      RightUpLeg_dum RightUpLeg
      Spine Spine_dum1 Spine_dum2 Spine_dum3
      Spine_dum1 Head
      Spine_dum2 LeftShoulder
      Spine_dum3 RightShoulder
      LeftShoulder LeftArm
      LeftArm LeftForeArm
      LeftForeArm LeftHand
      LeftHand LeftHand_dum1 LeftHand_dum2
      LeftHand_dum1 LeftHandThumb1
      RightShoulder RightArm
      RightArm RightForeArm
      RightForeArm RightHand
      RightHand RightHand_dum1 RightHand_dum2
      RightHand_dum1 RightHandThumb1
      LeftUpLeg LeftLeg
      LeftLeg LeftFoot
      LeftFoot LeftToeBase
      RightUpLeg RightLeg
      RightLeg RightFoot
      RightFoot RightToeBase
   end

# File created by Blade
# Date/Time:  Wed Sep 24 19:53:44 2014
# Frame Rate: 120.000 fps
#------------------------------------------------------
:FULLY-SPECIFIED
:DEGREES
140
root -6.303222 32.919129 -4.349164 9.107864 -8.435147 -0.853914
Spine -15.248642 -22.974941 8.489304
Head -8.836798 44.537582 3.739619
LeftShoulder 4.689653 -17.870939 40.934895
LeftArm 97.739615 -16.055249 -115.722524
LeftForeArm -50.786913 0.000000 87.384383
LeftHand -13.297923 -0.000000 -2.563034
LeftHandThumb1 -26.253704 0.000000 33.147579
RightShoulder -17.832525 12.160733 -18.910497
RightArm -7.841249 -24.600578 82.439926
RightForeArm -21.662153 0.000000 17.210235
RightHand -6.214623 -0.000000 11.993269
RightHandThumb1 -24.326973 -0.000000 -32.862282
LeftUpLeg -1.209686 14.030590 3.401257
LeftLeg -1.943326 -0.000000 0.000000
LeftFoot -10.700098 8.585090 -18.639045
LeftToeBase 11.567397 -0.000000 -0.000000
RightUpLeg -6.590794 -1.470759 -3.844853
RightLeg 1.937391 -0.000000 -0.000000
RightFoot -7.176020 -0.541441 -14.538405
RightToeBase -1.668653 -0.000000 0.000000
141
root -6.303481 32.918630 -4.341471 9.119626 -8.475329 -0.848182
Spine -15.264380 -23.020629 8.485615
Head -8.835992 44.510981 3.563193
LeftShoulder 4.593109 -17.863078 40.988065
LeftArm 98.089138 -16.211760 -115.626005
LeftForeArm -50.479891 0.000000 87.542977
LeftHand -12.961560 -0.000000 -2.732039
LeftHandThumb1 -26.253704 0.000000 33.147579
RightShoulder -17.839297 12.097051 -18.935724
RightArm -7.999563 -24.588811 82.526391
RightForeArm -21.633789 -0.000000 17.220299
RightHand -6.224585 -0.000000 11.922971
RightHandThumb1 -24.326973 -0.000000 -32.862282
LeftUpLeg -1.175087 14.172171 3.382170
LeftLeg -2.004958 -0.000000 0.000000
LeftFoot -10.652840 8.526879 -18.618715
LeftToeBase 11.570101 -0.000000 -0.000000
RightUpLeg -6.603031 -1.446506 -3.856807
RightLeg 1.951470 -0.000000 -0.000000
RightFoot -7.203143 -0.533372 -14.563087
RightToeBase -1.637753 -0.000000 0.000000
142
root -6.309166 32.917346 -4.328056 9.094993 -8.468354 -0.859838
Spine -15.253535 -23.106760 8.481176
Head -8.828644 44.429593 3.426545
LeftShoulder 4.498665 -17.779747 41.012773
LeftArm 98.498703 -16.294628 -115.526300
LeftForeArm -50.092453 0.000000 87.678107
LeftHand -12.949884 -0.000000 -2.742328
LeftHandThumb1 -26.253704 0.000000 33.147579
RightShoulder -17.836184 12.029051 -18.952740
RightArm -8.172533 -24.569756 82.607272
RightForeArm -21.599946 -0.000000 17.257585
RightHand -6.291251 -0.000000 11.813422
RightHandThumb1 -24.326973 -0.000000 -32.862282
LeftUpLeg -1.092069 14.296266 3.408351
LeftLeg -2.073431 -0.000000 0.000000
LeftFoot -10.595716 8.418711 -18.613857
LeftToeBase 11.615445 -0.000000 -0.000000
RightUpLeg -6.540034 -1.324917 -3.849247
RightLeg 1.935217 -0.000000 -0.000000
RightFoot -7.182991 -0.676108 -14.586612
RightToeBase -1.653915 -0.000000 0.000000
143
root -6.312013 32.916967 -4.318935 9.090858 -8.482304 -0.862634
Spine -15.251114 -23.151568 8.465799
Head -8.828509 44.335363 3.298723
LeftShoulder 4.387745 -17.742061 41.031293
LeftArm 98.840380 -16.361314 -115.442199
LeftForeArm -49.899745 0.000000 87.833247
LeftHand -12.866180 -0.000000 -2.737007
LeftHandThumb1 -26.253704 0.000000 33.147579
RightShoulder -17.846724 11.967315 -18.969802
RightArm -8.342350 -24.490048 82.678057
RightForeArm -21.611804 0.000000 17.340750
RightHand -6.299268 -0.000000 11.763978
RightHandThumb1 -24.326973 -0.000000 -32.862282
LeftUpLeg -1.037809 14.445701 3.411288
LeftLeg -2.142162 -0.000000 0.000000
LeftFoot -10.536909 8.313346 -18.619161
LeftToeBase 11.606022 -0.000000 -0.000000
RightUpLeg -6.522430 -1.275135 -3.851553
RightLeg 1.938052 -0.000000 -0.000000
RightFoot -7.202742 -0.687028 -14.554977
RightToeBase -1.604380 -0.000000 0.000000
144
root -6.313838 32.916426 -4.311359 9.089919 -8.504972 -0.868740
Spine -15.251193 -23.168753 8.450575
Head -8.821776 44.184469 3.150425
LeftShoulder 4.269523 -17.613237 41.040185
LeftArm 99.248360 -16.349248 -115.417218
LeftForeArm -49.740892 0.000000 87.971119
LeftHand -12.743112 -0.000000 -2.813020
LeftHandThumb1 -26.253704 0.000000 33.147579
RightShoulder -17.858563 11.899789 -19.002783
RightArm -8.493689 -24.373642 82.761453
RightForeArm -21.624717 -0.000000 17.391570
RightHand -6.300170 -0.000000 11.709938
RightHandThumb1 -24.326973 -0.000000 -32.862282
LeftUpLeg -0.994089 14.571765 3.413964
LeftLeg -2.198448 -0.000000 0.000000
LeftFoot -10.487792 8.250960 -18.591724
LeftToeBase 11.572094 -0.000000 -0.000000
RightUpLeg -6.511305 -1.239303 -3.849402
RightLeg 1.941062 -0.000000 -0.000000
RightFoot -7.212326 -0.698297 -14.540394
RightToeBase -1.602543 -0.000000 0.000000
145
root -6.315779 32.915892 -4.303992 9.090644 -8.517750 -0.874942
Spine -15.260288 -23.208188 8.447909
Head -8.813998 44.054422 3.002518
LeftShoulder 4.135918 -17.523043 41.045296
LeftArm 99.582027 -16.356763 -115.369238
LeftForeArm -49.634119 0.000000 88.119643
LeftHand -12.751798 -0.000000 -2.836838
LeftHandThumb1 -26.253704 0.000000 33.147579
RightShoulder -17.843232 11.845180 -19.055603
RightArm -8.652481 -24.307489 82.868671
RightForeArm -21.545874 -0.000000 17.443745
RightHand -6.287919 -0.000000 11.616176
RightHandThumb1 -24.326973 -0.000000 -32.862282
LeftUpLeg -0.954546 14.642551 3.418519
LeftLeg -2.249371 -0.000000 0.000000
LeftFoot -10.446603 8.234950 -18.544486
LeftToeBase 11.520440 -0.000000 -0.000000
RightUpLeg -6.500626 -1.184538 -3.847154
RightLeg 1.941517 -0.000000 -0.000000
RightFoot -7.195666 -0.752101 -14.600192
RightToeBase -1.650915 -0.000000 0.000000
146
root -6.318418 32.915262 -4.295393 9.081890 -8.526054 -0.884725
Spine -15.264442 -23.215657 8.439363
Head -8.772719 43.923581 2.891738
LeftShoulder 4.026744 -17.458157 41.042366
LeftArm 99.852378 -16.361973 -115.338950
LeftForeArm -49.580174 -0.000000 88.313717
LeftHand -12.862963 0.000000 -2.767341
LeftHandThumb1 -26.253704 0.000000 33.147579
RightShoulder -17.841208 11.771804 -19.096057
RightArm -8.804522 -24.230363 82.941900
RightForeArm -21.545885 -0.000000 17.559316
RightHand -6.387909 0.000000 11.651395
RightHandThumb1 -24.326973 -0.000000 -32.862282
LeftUpLeg -0.905776 14.723308 3.432792
LeftLeg -2.293270 -0.000000 0.000000
LeftFoot -10.428081 8.181479 -18.564094
LeftToeBase 11.546275 -0.000000 -0.000000
RightUpLeg -6.478824 -1.141551 -3.842467
RightLeg 1.948448 -0.000000 -0.000000
RightFoot -7.213051 -0.757051 -14.553851
RightToeBase -1.632339 -0.000000 0.000000
147
root -6.321182 32.914534 -4.287465 9.070643 -8.523586 -0.889947
Spine -15.269426 -23.230707 8.411092
Head -8.683426 43.775464 2.849531
LeftShoulder 3.920810 -17.399518 41.064614
LeftArm 100.077998 -16.353135 -115.346003
LeftForeArm -49.501184 -0.000000 88.511994
LeftHand -12.853473 -0.000000 -2.809228
LeftHandThumb1 -26.253704 0.000000 33.147579
RightShoulder -17.829705 11.697579 -19.147987
RightArm -8.958438 -24.175655 83.050662
RightForeArm -21.490954 -0.000000 17.634502
RightHand -6.345803 -0.000000 11.539424
RightHandThumb1 -24.326973 -0.000000 -32.862282
LeftUpLeg -0.864565 14.797739 3.442024
LeftLeg -2.327571 -0.000000 0.000000
LeftFoot -10.397461 8.133724 -18.534520
LeftToeBase 11.537726 -0.000000 -0.000000
RightUpLeg -6.448428 -1.097632 -3.838420
RightLeg 1.943230 -0.000000 -0.000000
RightFoot -7.214185 -0.797748 -14.524334
RightToeBase -1.630204 -0.000000 0.000000
148
root -6.324385 32.913762 -4.279825 9.052787 -8.515770 -0.897372
Spine -15.265760 -23.241280 8.380350
Head -8.587094 43.598215 2.771892
LeftShoulder 3.797941 -17.310150 41.075316
LeftArm 100.294663 -16.314252 -115.332710
LeftForeArm -49.465729 0.000000 88.701185
LeftHand -12.832976 -0.000000 -2.856558
LeftHandThumb1 -26.253704 0.000000 33.147579
RightShoulder -17.819238 11.636925 -19.195555
RightArm -9.100322 -24.126911 83.147676
RightForeArm -21.374913 0.000000 17.707220
RightHand -6.299807 -0.000000 11.555586
RightHandThumb1 -24.326973 -0.000000 -32.862282
LeftUpLeg -0.818005 14.834114 3.460233
LeftLeg -2.356087 -0.000000 0.000000
LeftFoot -10.381615 8.110001 -18.543285
LeftToeBase 11.503790 -0.000000 -0.000000
RightUpLeg -6.410206 -1.041890 -3.831818
RightLeg 1.936326 -0.000000 -0.000000
RightFoot -7.209782 -0.866899 -14.567023
RightToeBase -1.632205 -0.000000 0.000000
149
root -6.326571 32.913110 -4.271236 9.030602 -8.514857 -0.905729
Spine -15.263192 -23.224104 8.346664
Head -8.461944 43.386778 2.704771
LeftShoulder 3.713153 -17.201826 41.075394
LeftArm 100.520763 -16.235322 -115.371721
LeftForeArm -49.297938 -0.000000 88.937240
LeftHand -12.862194 -0.000000 -2.838166
LeftHandThumb1 -26.253704 0.000000 33.147579
RightShoulder -17.806412 11.590256 -19.239843
RightArm -9.256444 -24.033987 83.232129
RightForeArm -21.402025 -0.000000 17.788789
RightHand -6.322518 0.000000 11.562059
RightHandThumb1 -24.326973 -0.000000 -32.862282
LeftUpLeg -0.761189 14.845678 3.477614
LeftLeg -2.391541 -0.000000 0.000000
LeftFoot -10.375791 8.109140 -18.545123
LeftToeBase 11.502447 -0.000000 -0.000000
RightUpLeg -6.377662 -1.009646 -3.826498
RightLeg 1.949006 -0.000000 -0.000000
RightFoot -7.227468 -0.892987 -14.532726
RightToeBase -1.585912 -0.000000 0.000000
